# AST/ASF file generated using VICON BodyLanguage
# -----------------------------------------------
:version 1.10
:name VICON
:units
  mass 1.0
  length 0.45
  angle deg
:documentation
   .ast/.asf automatically generated from VICON data using
   VICON BodyBuilder and BodyLanguage model FoxedUp or BRILLIANT.MOD
:root
   order TX TY TZ RX RY RZ
   axis XYZ
   position 0 0 0  
   orientation 0 0 0 
:bonedata
  begin
     id 1 
     name lhipjoint
     direction 0.566809 -0.746272 0.349008 
     length 2.40479 
     axis 0 0 0  XYZ
  end
  begin
     id 2 
     name lfemur
     direction 0.34202 -0.939693 0  
     length 7.1578  
     axis 0 0 20  XYZ
    dof rx ry rz
    limits (-160.0 20.0)
           (-70.0 70.0)
           (-60.0 70.0)
  end
  begin
     id 3 
     name ltibia
     direction 0.34202 -0.939693 0   
     length 7.49137   
     axis 0 0 20   XYZ
    dof rx
    limits (-10.0 170.0)
  end
  begin
     id 4 
     name lfoot
     direction 0.0665746 -0.182912 0.980873   
     length 2.36784   
     axis -90 7.62852e-016 20   XYZ
    dof rx rz
    limits (-45.0 90.0)
           (-70.0 20.0)
  end
  begin
     id 5 
     name ltoes
     direction 1.53601e-011 -4.22058e-011 1   
     length 1.18966   
     axis -90 7.62852e-016 20   XYZ
    dof rx
    limits (-90.0 20.0)
  end
  begin
     id 6 
     name rhipjoint
     direction -0.550236 -0.756381 0.353735   
     length 2.37265  
     axis 0 0 0  XYZ 
  end
  begin
     id 7 
     name rfemur
     direction -0.34202 -0.939693 0   
     length 7.43386   
     axis 0 0 -20   XYZ
    dof rx ry rz
    limits (-160.0 20.0)
           (-70.0 70.0)
           (-70.0 60.0)
  end
  begin
     id 8 
     name rtibia
     direction -0.34202 -0.939693 0   
     length 7.50908   
     axis 0 0 -20   XYZ
    dof rx
    limits (-10.0 170.0)
 end
 begin
     id 9 
     name rfoot
     direction -0.0683029 -0.187661 0.979856   
     length 2.41173  
     axis -90 -7.62852e-016 -20   XYZ
    dof rx rz
    limits (-45.0 90.0)
           (-20.0 70.0)
  end
  begin
     id 10 
     name rtoes
     direction -1.53528e-011 -4.21968e-011 1   
     length 1.21082   
     axis -90 -7.62852e-016 -20   XYZ
    dof rx
    limits (-90.0 20.0)
  end
  begin
     id 11 
     name lowerback
     direction 0.013823 0.995423 -0.0945635   
     length 2.04495   
     axis 0 0 0   XYZ
    dof rx ry rz
    limits (-20.0 45.0)
           (-30.0 30.0)
           (-30.0 30.0)
  end
  begin
     id 12 
     name upperback
     direction 0.0276657 0.9994 -0.020853   
     length 2.05008   
     axis 0 0 0   XYZ
    dof rx ry rz
    limits (-20.0 45.0)
           (-30.0 30.0)
           (-30.0 30.0)
  end
  begin
     id 13 
     name thorax
     direction 0.019782 0.999531 0.0233827   
     length 2.06488   
     axis 0 0 0   XYZ
    dof rx ry rz
    limits (-20.0 45.0)
           (-30.0 30.0)
           (-30.0 30.0)
  end
  begin
     id 14 
     name lowerneck
     direction -0.0308541 0.994709 0.0979874   
     length 1.75553   
     axis 0 0 0   XYZ
    dof rx ry rz
    limits (-20.0 45.0)
           (-30.0 30.0)
           (-30.0 30.0)
  end
  begin
     id 15 
     name upperneck
     direction 0.0588398 0.995804 -0.0700903   
     length 1.76878   
     axis 0 0 0   XYZ
    dof rx ry rz
    limits (-20.0 45.0)
           (-30.0 30.0)
           (-30.0 30.0)
  end
  begin
     id 16
     name head
     direction 0.0209966 0.999159 -0.0352225  
     length 1.77193  
     axis 0 0 0   XYZ
    dof rx ry rz
    limits (-20.0 45.0)
           (-30.0 30.0)
           (-30.0 30.0)
  end
  begin
     id 17 
     name lclavicle
     direction 0.938182 0.335073 -0.0868338  
     length 3.58396  
     axis 0 0 0   XYZ
    dof ry rz
    limits (-20.0 10.0)
           (0.0 20.0)
  end
  begin
     id 18 
     name lhumerus
     direction 1 -4.48971e-011 -1.26313e-017   
     length 4.983   
     axis 180 -30 -90   XYZ
    dof rx ry rz
    limits (-60.0 90.0)
           (-90.0 90.0)
           (-90.0 90.0)
  end
  begin
     id 19
     name lradius
     direction 1 -4.48948e-011 -5.89033e-027   
     length 3.48356   
     axis 180 -30 -90   XYZ
    dof rx
    limits (-10.0 170.0)
  end
  begin
     id 20
     name lwrist
     direction 1 -4.48977e-011 -1.48983e-026   
     length 1.74178   
     axis 9.0955e-015 90 90   XYZ
    dof ry
    limits (-180.0 0.0)
 end
  begin
     id 21 
     name lhand
     direction 1 -4.49046e-011 -2.98066e-026   
     length 0.715259   
     axis 1.90115e-014 90 90   XYZ
    dof rx rz
    limits (-90.0 90.0)
           (-45.0 45.0)
  end
  begin
     id 22 
     name lfingers
     direction 1 -4.48907e-011 -5.95731e-026   
     length 0.576661   
     axis 3.80223e-014 90 90   XYZ
    dof rx
    limits (0.0 90.0)
  end
  begin
     id 23
     name lthumb
     direction 0.707107 -6.34963e-011 0.707107   
     length 0.827973   
     axis -90 45 -3.84942e-014   XYZ
    dof rx rz
    limits (-45.0 45.0)
           (-45.0 45.0)
  end
  begin
     id 24 
     name rclavicle
     direction -0.909637 0.398485 -0.11735   
     length 3.44819  
     axis 0 0 0   XYZ 
    dof ry rz
    limits (-10.0 20.0)
           (-20.0 0.0)
  end
  begin
     id 25 
     name rhumerus
     direction -1 -4.48978e-011 -1.09333e-027  
     length 5.2419   
     axis 180 30 90   XYZ
    dof rx ry rz
    limits (-90.0 60.0)
           (-90.0 90.0)
           (-90.0 90.0)
  end
  begin
     id 26 
     name rradius
     direction -1 -4.48953e-011 -7.61841e-027   
     length 3.44417   
     axis 180 30 90   XYZ
    dof rx
    limits (-10.0 170.0)
  end
  begin
     id 27 
     name rwrist
     direction -1 -4.48977e-011 -1.48983e-026   
     length 1.72209   
     axis 9.0955e-015 -90 -90   XYZ
    dof ry
    limits (-180.0 0.0)
  end
  begin
     id 28
     name rhand
     direction -1 -4.49027e-011 -2.98038e-026   
     length 0.622529   
     axis 1.90115e-014 -90 -90   XYZ
    dof rx rz
    limits (-90.0 90.0)
           (-45.0 45.0)
  end
  begin
     id 29
     name rfingers
     direction -1 -4.48838e-011 -5.95531e-026   
     length 0.501899   
     axis 3.80223e-014 -90 -90   XYZ
    dof rx
    limits (0.0 90.0)
  end
  begin
     id 30
     name rthumb
     direction -0.707107 -6.34937e-011 0.707107   
     length 0.720629   
     axis -90 -45 3.84942e-014   XYZ
    dof rx rz
    limits (-45.0 45.0)
           (-45.0 45.0)
  end
:hierarchy
  begin
    root lhipjoint rhipjoint lowerback
    lhipjoint lfemur
    lfemur ltibia
    ltibia lfoot
    lfoot ltoes
    rhipjoint rfemur
    rfemur rtibia
    rtibia rfoot
    rfoot rtoes
    lowerback upperback
    upperback thorax
    thorax lowerneck lclavicle rclavicle
    lowerneck upperneck
    upperneck head
    lclavicle lhumerus
    lhumerus lradius
    lradius lwrist
    lwrist lhand lthumb
    lhand lfingers
    rclavicle rhumerus
    rhumerus rradius
    rradius rwrist
    rwrist rhand rthumb
    rhand rfingers
  end

#!OML:ASF F:\VICON\USERDATA\Patient Classification 1\PLAYGROUND\JustinFriday\JustinFriday.ASF
:FULLY-SPECIFIED
:DEGREES
544
root -24.8038 22.5688 -10.5059 262.64 86.4302 -115.15
lowerback 26.53 8.02043 -9.07267
upperback 11.1528 10.1676 12.3836
thorax -5.8313 5.24399 15.0017
lowerneck -12.2347 -7.38213 -13.9171
upperneck -14.7178 -7.54087 1.36497
head -2.18365 -2.6735 2.63025
rclavicle 3.02153e-014 3.33958e-014
rhumerus 23.9448 13.6882 -46.8006
rradius 47.2334
rwrist 10.9441
rhand -36.9387 -11.3969
rfingers 7.12502
rthumb -10.0155 -41.1386
lclavicle 3.02153e-014 3.33958e-014
lhumerus 59.5728 -18.2345 72.1181
lradius 41.1318
lwrist -20.7397
lhand -19.5737 -16.1463
lfingers 7.12502
lthumb 6.75136 13.7261
rfemur -79.6617 -2.76744 25.051
rtibia 110.036
rfoot -24.1286 -1.10169
rtoes 5.87243
lfemur -35.85 4.21252 -22.8651
ltibia 30.4798
lfoot -10.7683 -4.66848
ltoes -5.98126
545
root -24.781 22.6031 -10.5658 264.619 86.5203 -112.739
lowerback 27.1397 7.71786 -8.66359
upperback 11.2895 9.76978 11.8478
thorax -5.62527 5.01468 14.2637
lowerneck -13.4116 -7.02778 -12.2678
upperneck -14.2437 -7.08871 0.823918
head -1.92572 -2.55097 2.12908
rclavicle -1.43125e-014 7.79236e-014
rhumerus 24.7221 12.5975 -49.3283
rradius 46.4952
rwrist 13.1582
rhand -34.4078 -12.3419
rfingers 7.12502
rthumb -7.57319 -42.1863
lclavicle -1.43125e-014 7.79236e-014
lhumerus 59.5846 -17.9871 71.2895
lradius 40.9458
lwrist -20.9511
lhand -20.077 -16.388
lfingers 7.12502
lthumb 6.26549 13.4993
rfemur -80.3904 -3.01018 24.9877
rtibia 110.41
rfoot -24.6819 -0.492919
rtoes 4.80451
lfemur -35.0686 6.61079 -23.8893
ltibia 29.6714
lfoot -10.6898 -7.27109
ltoes -8.06602
546
root -24.7474 22.6842 -10.6242 263.491 85.2598 -113.605
lowerback 27.6099 7.0288 -6.9805
upperback 11.4212 9.32885 11.9369
thorax -5.34298 4.80918 13.5584
lowerneck -14.3788 -7.07203 -13.1267
upperneck -13.5363 -6.80698 1.81547
head -1.48103 -2.42177 2.5879
rclavicle -2.70347e-014 -4.45278e-014
rhumerus 24.7361 15.1077 -47.2695
rradius 48.9817
rwrist 10.217
rhand -31.8296 -14.5538
rfingers 7.12502
rthumb -5.08424 -44.4728
lclavicle -2.70347e-014 -4.45278e-014
lhumerus 59.4815 -17.6467 71.3367
lradius 40.6491
lwrist -21.4521
lhand -20.5697 -16.3785
lfingers 7.12502
lthumb 5.78978 13.5224
rfemur -80.5272 -3.01615 26.5154
rtibia 110.122
rfoot -25.1456 -1.26175
rtoes 2.67066
lfemur -33.9978 3.60811 -21.5231
ltibia 28.9301
lfoot -9.74065 -4.74978
ltoes -5.02833
547
root -24.7127 22.7519 -10.6327 265.982 83.497 -111.228
lowerback 27.6097 6.72922 -5.5631
upperback 11.4503 9.41887 12.5733
thorax -5.28831 4.89296 13.4438
lowerneck -13.7316 -7.09374 -14.9593
upperneck -13.9467 -6.60099 3.35085
head -1.51133 -2.2441 3.20741
rclavicle 6.83819e-014 4.29375e-014
rhumerus 24.7152 16.0441 -45.9691
rradius 50.3295
rwrist 8.73502
rhand -28.7904 -14.3799
rfingers 7.12502
rthumb -2.14923 -44.3489
lclavicle 6.83819e-014 4.29375e-014
lhumerus 59.2901 -17.7724 71.0365
lradius 40.8107
lwrist -21.0191
lhand -20.9267 -15.815
lfingers 7.12502
lthumb 5.44512 14.0951
rfemur -80.9805 -1.84268 28.7805
rtibia 109.739
rfoot -25.4703 -2.10531
rtoes 2.70107
lfemur -33.6299 3.50718 -19.2927
ltibia 28.1122
lfoot -8.96802 -4.75194
ltoes -3.91409
548
root -24.6917 22.7575 -10.5754 266.109 84.337 -111.367
lowerback 26.9949 7.51642 -7.05083
upperback 11.41 10.1038 12.8769
thorax -5.55555 5.23516 14.4107
lowerneck -11.2694 -7.00953 -14.8016
upperneck -16.0596 -7.04379 2.3129
head -2.53013 -2.329 2.96337
rclavicle 2.06736e-014 -3.33958e-014
rhumerus 23.6185 15.1462 -45.8253
rradius 50.8082
rwrist 9.25789
rhand -26.4306 -12.895
rfingers 7.12502
rthumb 0.129826 -42.8747
lclavicle 2.06736e-014 -3.33958e-014
lhumerus 59.254 -18.9813 71.158
lradius 41.2136
lwrist -20.243
lhand -21.0204 -15.6541
lfingers 7.12502
lthumb 5.35469 14.2583
rfemur -82.6776 -1.30345 28.2342
rtibia 110.076
rfoot -25.6216 -1.4591
rtoes 5.1917
lfemur -33.5078 3.83024 -20.1277
ltibia 27.3288
lfoot -8.83334 -4.8655
ltoes -13.1371
549
root -24.6341 22.7877 -10.4955 250.92 84.7504 -125.975
lowerback 26.9091 7.40301 -8.6935
upperback 11.576 9.58172 12.8651
thorax -5.40754 4.95989 15.5782
lowerneck -13.1164 -7.30532 -13.5806
upperneck -14.3117 -7.29957 1.59802
head -1.91427 -2.59987 2.62293
rclavicle -4.77083e-015 -2.54444e-014
rhumerus 23.3448 15.4704 -45.8398
rradius 51.6389
rwrist 9.22581
rhand -25.1544 -11.5039
rfingers 7.12502
rthumb 1.36247 -41.4792
lclavicle -4.77083e-015 -2.54444e-014
lhumerus 58.8954 -18.9949 70.09
lradius 41.6553
lwrist -19.5943
lhand -21.0839 -15.874
lfingers 7.12502
lthumb 5.29337 14.0398
rfemur -82.8463 -2.47745 27.8078
rtibia 110.264
rfoot -26.3268 -0.406229
rtoes 8.71357
lfemur -32.4095 2.71664 -20.6062
ltibia 26.8035
lfoot -7.91547 -5.6235
ltoes 7.16954
550
root -24.6195 22.7643 -10.5707 234.187 86.6566 -143.902
lowerback 25.4793 6.83223 -10.3412
upperback 11.4536 8.32535 11.6513
thorax -4.44048 4.22386 15.7876
lowerneck -12.8381 -7.11005 -14.6511
upperneck -15.0264 -6.76722 4.51056
head -1.89898 -2.32718 3.55954
rclavicle 2.38542e-014 3.18055e-014
rhumerus 23.0059 17.9423 -44.2917
rradius 56.1722
rwrist 7.95348
rhand -24.3664 -14.5377
rfingers 7.12502
rthumb 2.12348 -44.5069
lclavicle 2.38542e-014 3.18055e-014
lhumerus 58.7377 -18.5132 66.9472
lradius 42.8132
lwrist -17.6899
lhand -21.4816 -15.1344
lfingers 7.12502
lthumb 4.90935 14.7888
rfemur -85.917 -4.13418 25.2378
rtibia 110.669
rfoot -25.9621 2.19919
rtoes 11.0087
lfemur -33.3058 1.23669 -23.2739
ltibia 26.3317
lfoot -7.26857 -4.89324
ltoes 14.8451
551
root -24.6176 22.7894 -10.6002 257.907 86.7352 -119.993
lowerback 26.0074 7.52018 -9.09824
upperback 11.4264 9.47036 11.8179
thorax -4.95423 4.83449 14.7398
lowerneck -13.1488 -7.86797 -13.7285
upperneck -14.5321 -7.97092 2.83995
head -1.87001 -2.94816 3.04732
rclavicle 4.77083e-015 -3.65764e-014
rhumerus 22.5489 15.8711 -44.9748
rradius 54.8255
rwrist 10.9503
rhand -24.2619 -14.1947
rfingers 7.12502
rthumb 2.22446 -44.1628
lclavicle 4.77083e-015 -3.65764e-014
lhumerus 58.7668 -19.4862 70.9208
lradius 41.6537
lwrist -20.5971
lhand -21.4049 -16.2443
lfingers 7.12502
lthumb 4.98341 13.6771
rfemur -86.1972 -2.45533 26.0124
rtibia 110.018
rfoot -26.0167 2.32597
rtoes 11.7493
lfemur -32.9328 2.29814 -22.6509
ltibia 26.0527
lfoot -7.1715 -4.58308
ltoes 12.8334
552
root -24.5539 22.7979 -10.6151 238.254 86.498 -140.066
lowerback 25.3653 7.23808 -8.35864
upperback 11.224 9.2307 11.2367
thorax -4.59291 4.70619 13.8172
lowerneck -13.3294 -7.9292 -11.9732
upperneck -14.2796 -8.2985 2.03142
head -1.82562 -3.20587 2.43127
rclavicle -4.13472e-014 -2.06736e-014
rhumerus 20.225 16.5155 -43.4226
rradius 58.9
rwrist 9.33972
rhand -24.4534 -15.6789
rfingers 7.12502
rthumb 2.03947 -45.6489
lclavicle -4.13472e-014 -2.06736e-014
lhumerus 59.4732 -20.8495 69.8001
lradius 41.979
lwrist -20.2759
lhand -21.9615 -15.2493
lfingers 7.12502
lthumb 4.44596 14.684
rfemur -87.1027 -3.42701 26.0641
rtibia 109.741
rfoot -26.7453 2.18355
rtoes 10.9915
lfemur -33.0029 2.5267 -23.4697
ltibia 25.6343
lfoot -6.74704 -6.05112
ltoes 10.8058
553
root -24.5472 22.81 -10.6031 252.986 87.0397 -125.637
lowerback 24.944 6.92484 -10.1908
upperback 11.5245 8.51941 11.8079
thorax -4.21184 4.30645 15.8692
lowerneck -13.0109 -7.6977 -16.3341
upperneck -14.9618 -7.26804 5.0475
head -1.74654 -2.49276 3.95364
rclavicle 5.40694e-014 7.95139e-015
rhumerus 22.7426 19.654 -40.9892
rradius 61.1805
rwrist 8.01042
rhand -23.9776 -14.7067
rfingers 7.12502
rthumb 2.49899 -44.6718
lclavicle 5.40694e-014 7.95139e-015
lhumerus 57.5063 -17.7231 70.8676
lradius 42.2498
lwrist -20.7234
lhand -22.7569 -14.3283
lfingers 7.12502
lthumb 3.6779 15.6197
rfemur -88.075 -2.00349 26.3638
rtibia 108.751
rfoot -26.2085 0.859957
rtoes 7.24863
lfemur -33.1346 2.58709 -23.1341
ltibia 25.2498
lfoot -6.41593 -5.34327
ltoes 12.8571
554
root -24.5132 22.9017 -10.6562 255.616 85.7994 -122.078
lowerback 26.2759 6.8081 -8.17443
upperback 11.4908 8.73478 11.5001
thorax -4.58663 4.46107 14.1231
lowerneck -12.6437 -7.16726 -12.0486
upperneck -15.4852 -7.32569 2.81986
head -2.38296 -2.67361 2.81621
rclavicle -2.54444e-014 -4.92986e-014
rhumerus 22.7752 17.5906 -43.4753
rradius 60.2159
rwrist 9.28839
rhand -23.564 -11.079
rfingers 7.12502
rthumb 2.89845 -41.039
lclavicle -2.54444e-014 -4.92986e-014
lhumerus 57.808 -19.1587 69.4086
lradius 42.6469
lwrist -20.2762
lhand -22.6748 -15.0378
lfingers 7.12502
lthumb 3.75717 14.9088
rfemur -87.1092 -2.09179 27.1782
rtibia 107.912
rfoot -26.1907 4.1646
rtoes 14.5435
lfemur -31.63 1.52903 -21.4445
ltibia 24.6824
lfoot -6.42469 -4.42119
ltoes 14.1788
555
root -24.4475 23.0005 -10.6868 262.645 81.1525 -113.329
lowerback 28.5303 5.74562 -3.39562
upperback 11.8241 8.86838 13.1532
thorax -4.95225 4.66679 13.0247
lowerneck -12.6411 -7.28387 -16.2248
upperneck -14.3349 -6.83416 5.18591
head -1.64388 -2.34509 3.99641
rclavicle 3.81667e-014 4.6118e-014
rhumerus 22.3519 20.4437 -39.4941
rradius 65.5744
rwrist 7.3186
rhand -24.2006 -14.0355
rfingers 7.12502
rthumb 2.28365 -44.003
lclavicle 3.81667e-014 4.6118e-014
lhumerus 56.801 -18.6515 69.6134
lradius 43.2433
lwrist -19.4877
lhand -22.6967 -15.7364
lfingers 7.12502
lthumb 3.73599 14.2106
rfemur -83.0809 -0.419978 32.4531
rtibia 105.412
rfoot -26.8948 0.354562
rtoes 8.39826
lfemur -29.417 3.70404 -16.5363
ltibia 24.1751
lfoot -6.19521 -6.3788
ltoes 12.4465
556
root -24.4119 23.017 -10.7118 265.12 80.4162 -110.454
lowerback 29.0049 5.58021 -2.16114
upperback 11.9127 8.98685 13.0681
thorax -4.88695 4.73724 12.1525
lowerneck -12.6474 -7.27459 -14.9688
upperneck -14.71 -7.03575 4.00229
head -1.82849 -2.45705 3.43754
rclavicle 5.725e-014 7.4743e-014
rhumerus 22.6087 19.4589 -40.6803
rradius 65.9934
rwrist 8.94835
rhand -24.0596 -11.0184
rfingers 7.12502
rthumb 2.41984 -40.9844
lclavicle 5.725e-014 7.4743e-014
lhumerus 56.6399 -19.0479 68.3822
lradius 44.1708
lwrist -18.3958
lhand -22.76 -15.4136
lfingers 7.12502
lthumb 3.67488 14.5344
rfemur -82.4998 0.142602 33.4178
rtibia 104.13
rfoot -26.3251 -0.647406
rtoes 5.4986
lfemur -28.547 4.87977 -15.9057
ltibia 23.5026
lfoot -5.81467 -7.24834
ltoes 11.4018
557
root -24.3726 23.0465 -10.7524 264.54 79.8894 -110.222
lowerback 29.9218 5.2082 -1.07194
upperback 12.1128 8.8187 12.7989
thorax -4.7922 4.66403 11.2487
lowerneck -13.1259 -7.07311 -12.5946
upperneck -14.8418 -7.09344 2.25962
head -2.10747 -2.54333 2.69818
rclavicle -4.77083e-014 -2.70347e-014
rhumerus 22.8851 18.7783 -41.0324
rradius 67.1819
rwrist 9.472
rhand -22.2916 -5.9083
rfingers 7.12502
rthumb 4.12716 -35.8481
lclavicle -4.77083e-014 -2.70347e-014
lhumerus 56.5495 -19.2002 67.9135
lradius 44.6646
lwrist -18.3939
lhand -22.5098 -14.8466
lfingers 7.12502
lthumb 3.91648 15.0972
rfemur -81.4896 -0.329689 34.0261
rtibia 102.934
rfoot -26.2319 0.193052
rtoes 5.37659
lfemur -27.4225 5.69333 -15.6212
ltibia 23.2628
lfoot -5.31517 -8.57589
ltoes 8.95207
558
root -24.3355 23.0635 -10.7626 263.497 79.8506 -111.276
lowerback 29.7782 4.98499 -0.898954
upperback 12.0905 8.53533 12.5246
thorax -4.61785 4.52236 10.9719
lowerneck -12.9299 -6.77131 -12.5652
upperneck -14.6447 -6.70845 2.75598
head -2.07816 -2.3848 2.88457
rclavicle 2.70347e-014 0
rhumerus 22.9165 18.6764 -40.7437
rradius 69.3281
rwrist 9.16061
rhand -21.2081 -1.50243
rfingers 7.12502
rthumb 5.17346 -31.4193
lclavicle 2.70347e-014 0
lhumerus 56.2505 -19.0416 68.3547
lradius 44.4819
lwrist -19.2058
lhand -22.4824 -14.9173
lfingers 7.12502
lthumb 3.94296 15.0259
rfemur -81.5146 -0.412302 34.0323
rtibia 101.999
rfoot -26.0976 1.32149
rtoes 7.85585
lfemur -27.286 6.07491 -15.7705
ltibia 23.1242
lfoot -4.94059 -9.51264
ltoes 4.76951
